<svg width="148" height="20" viewBox="0 0 148 20" fill="none" xmlns="http://www.w3.org/2000/svg">
<path fill-rule="evenodd" clip-rule="evenodd" d="M44.9954 0H44.6292C43.7327 0.0304509 43.0101 0.0823301 42.167 0.272554C38.9033 1.00826 37.0645 3.53944 37.6759 6.90107C38.213 9.85367 40.8206 11.1195 43.4818 11.6157C44.2873 11.7658 45.091 11.925 45.893 12.0931C46.4987 12.2199 47.0086 12.3717 47.4227 12.5484C48.2703 12.91 48.6474 13.4886 48.5918 14.4311C48.5122 15.7781 47.4065 16.3055 46.2134 16.4078C45.1133 16.5025 44.0181 16.4517 43.006 16.0566C41.8004 15.586 41.4624 14.4897 41.4459 13.3082C41.4458 13.3006 41.4427 13.2935 41.4374 13.2882C41.432 13.2829 41.4248 13.28 41.4173 13.28H37.2038C37.2008 13.28 37.1978 13.2806 37.1951 13.2817C37.1923 13.2829 37.1897 13.2845 37.1876 13.2867C37.1855 13.2888 37.1838 13.2913 37.1827 13.2941C37.1815 13.2969 37.1809 13.2999 37.1809 13.3029C37.1869 15.5593 38.0781 17.5386 40.033 18.7472C41.5447 19.6818 43.3286 19.9592 45.0754 19.9998H45.4979C46.7035 19.972 47.814 19.8547 48.955 19.5013C50.9778 18.875 52.5781 17.4946 53.0168 15.3548C53.1913 14.5031 53.1979 13.6271 53.0367 12.7266C52.7366 11.051 51.688 9.88525 50.1873 9.17436C49.3302 8.7686 48.4227 8.46647 47.4648 8.26797C47.0605 8.18421 46.6824 8.11134 46.3176 8.04102L46.3176 8.04101L46.3176 8.04101L46.3175 8.04101L46.3175 8.041L46.3175 8.041C45.6771 7.91755 45.0775 7.80198 44.4489 7.64918C43.4969 7.41798 42.3093 7.05144 42.09 5.93303C41.8106 4.5056 42.7345 3.75335 44.0324 3.60034C44.7252 3.51839 45.4273 3.53731 46.1386 3.65711C47.5538 3.89546 48.2944 4.78116 48.359 6.20747C48.3593 6.21385 48.362 6.21987 48.3665 6.22428C48.3711 6.22869 48.3771 6.23115 48.3834 6.23115H52.5034C52.5137 6.23115 52.5187 6.22601 52.5184 6.21574C52.4909 5.52151 52.3966 4.90885 52.2356 4.37778C51.2167 1.01728 48.1641 0.0571424 44.9954 0ZM59.7645 0H55.1333C55.1328 4.00297 55.1331 8.00595 55.1341 12.0089C55.1348 14.207 55.6482 16.2844 57.3244 17.816C59.0434 19.3867 61.1248 19.934 63.3842 19.9998H63.8255C64.9218 19.9683 65.9058 19.8592 66.948 19.5525C69.3952 18.8322 71.2141 17.0499 71.8379 14.5487C72.0433 13.7258 72.1169 12.8661 72.1173 11.9991C72.1191 7.99943 72.1193 3.99972 72.1181 0H67.4805C67.4798 4.07265 67.4798 8.14529 67.4805 12.2179C67.4809 14.1416 66.5134 15.6205 64.5252 15.9198C62.9632 16.1547 61.1139 15.8668 60.2583 14.348C59.867 13.6536 59.7701 12.857 59.7708 12.0743C59.7751 8.04955 59.773 4.02478 59.7645 0ZM74.1017 0H83.7545C85.7368 0.0432327 87.8471 0.409771 89.2082 2.01953C89.7603 2.67241 90.0978 3.42792 90.2207 4.28605C90.4911 6.16987 89.9082 7.97061 88.2385 9.00143C88.0462 9.12022 87.8481 9.23163 87.6443 9.33563C87.6295 9.34315 87.6298 9.3503 87.6451 9.35706C87.7717 9.4122 87.8983 9.46746 88.0248 9.52285C89.9052 10.3488 91.1134 12.1871 91.0999 14.245C91.0883 16.0093 90.4656 17.5694 89.0463 18.6329C87.6556 19.6746 85.7924 19.9713 84.0407 19.9998H74.1001V0.683453C74.1001 0.637875 74.0984 0.580919 74.0964 0.517431L74.0964 0.517177V0.517156V0.517131V0.517102V0.517066V0.517024C74.0915 0.360115 74.0854 0.163409 74.1017 0ZM78.8338 3.82741L78.8485 8.03489C78.8485 8.03899 78.8493 8.04305 78.8508 8.04683C78.8524 8.05062 78.8547 8.05406 78.8576 8.05696C78.8605 8.05985 78.8639 8.06215 78.8677 8.06372C78.8715 8.06529 78.8756 8.0661 78.8796 8.0661L83.4924 8.04993C84.0459 8.04796 84.5759 7.83532 84.966 7.45878C85.356 7.08223 85.5741 6.57263 85.5723 6.04205L85.5715 5.77363C85.5706 5.51087 85.5158 5.25086 85.41 5.00846C85.3043 4.76606 85.1498 4.54601 84.9553 4.36088C84.7609 4.17576 84.5303 4.02918 84.2767 3.92952C84.0231 3.82985 83.7515 3.77906 83.4774 3.78004L78.8646 3.79621C78.8564 3.79631 78.8486 3.79964 78.8428 3.80548C78.8371 3.81132 78.8338 3.8192 78.8338 3.82741ZM79.1117 16.207C80.5622 16.216 82.0128 16.2184 83.4635 16.2141C84.6998 16.2108 85.9576 15.8138 86.1785 14.4179C86.3291 13.4653 86.0714 12.3638 85.1021 11.9382C84.6854 11.7555 84.2293 11.6623 83.7335 11.6585C82.3865 11.649 81.0395 11.6493 79.6927 11.6593L79.651 11.6596H79.6509C79.4432 11.6611 79.1851 11.663 78.9615 11.6514C78.928 11.6496 78.8945 11.6538 78.8612 11.6638C78.8482 11.6678 78.8417 11.6766 78.8417 11.6901V16.1766C78.8417 16.1921 78.8494 16.2002 78.8646 16.201C78.9457 16.2045 79.0281 16.2065 79.1117 16.207ZM102.576 0H91.6926L91.6877 4.19282C91.6877 4.2234 91.703 4.23869 91.7336 4.23869H97.7787C97.7865 4.23869 97.7939 4.24177 97.7994 4.24727C97.8049 4.25277 97.808 4.26023 97.808 4.26801V19.9998H102.577L102.576 0ZM104.55 0H109.293L109.298 19.9998H104.55V0ZM122.188 0H111.275L111.28 19.9998H116.04L116.041 4.25899C116.041 4.2536 116.044 4.24844 116.047 4.24463C116.051 4.24082 116.056 4.23869 116.062 4.23869L122.155 4.23906C122.178 4.23906 122.19 4.22741 122.19 4.2041L122.188 0ZM124.164 0H128.936L128.934 15.742C128.934 15.7471 128.936 15.7519 128.94 15.7555C128.944 15.7591 128.948 15.7611 128.954 15.7611H135.064C135.076 15.7611 135.082 15.7674 135.082 15.7799L135.078 19.9998H124.166L124.164 0ZM147.995 0H137.056L137.055 19.9998H147.97L147.972 15.7777C147.972 15.7667 147.966 15.7611 147.955 15.7611H141.825C141.813 15.7611 141.807 15.7555 141.806 15.7442C141.796 15.6649 141.8 15.5765 141.804 15.4993C141.805 15.4594 141.807 15.4226 141.807 15.3916C141.795 14.2555 141.792 13.1193 141.796 11.983C141.796 11.9449 141.801 11.9073 141.809 11.8702C141.811 11.8649 141.814 11.8601 141.818 11.8567C141.822 11.8533 141.827 11.8514 141.833 11.8514H147.955C147.968 11.8514 147.974 11.8451 147.974 11.8326L147.973 7.90256C147.973 7.8785 147.961 7.86647 147.937 7.86647H141.818C141.812 7.86647 141.806 7.8639 141.801 7.85932C141.797 7.85473 141.794 7.84852 141.794 7.84204L141.801 4.25936C141.801 4.24533 141.808 4.23831 141.822 4.23831L147.995 4.23944C147.996 4.23944 147.997 4.23919 147.997 4.23873C147.998 4.23852 147.998 4.23828 147.998 4.23801C147.999 4.23709 148 4.23585 148 4.23455L147.995 0Z" fill="white"/>
<path d="M12.5446 0H22.724L22.7296 8.64504C22.7296 8.65857 22.7364 8.66534 22.7499 8.66534H23.9686C23.9797 8.66534 23.988 8.6607 23.9938 8.65143L29.506 0H35.0615C35.0791 0.0481199 35.0303 0.0706761 35.0081 0.102255C32.7044 3.41576 30.3996 6.72901 28.0939 10.042C28.0866 10.0525 28.0868 10.0631 28.0943 10.0736L35.1768 19.9837C35.1785 19.9864 35.1783 19.9888 35.176 19.9908C35.173 19.9938 35.1709 19.9968 35.1696 19.9998H29.6131L24.0197 11.9285C24.0173 11.925 24.014 11.9221 24.0102 11.9202C24.0065 11.9182 24.0022 11.9172 23.9979 11.9172H22.7499C22.7376 11.9172 22.7314 11.9235 22.7311 11.936C22.6823 14.4213 22.7217 16.9175 22.7221 19.404C22.7221 19.5476 22.7435 19.7983 22.7195 19.9998H12.5442L12.5446 0Z" fill="white"/>
<path fill-rule="evenodd" clip-rule="evenodd" d="M5.05291 0H4.95038C3.29712 0.0669167 1.98689 0.73057 1.01967 1.99096C0.372189 2.83456 0.0292944 3.8541 0 4.92251V5.05409C0.0463202 6.43428 0.540069 7.59668 1.48125 8.54128C2.29511 9.35819 3.34107 9.83901 4.49745 9.96307C7.34051 10.268 9.89137 8.03677 9.97738 5.20747C10.0645 2.34509 7.90536 0.0958638 5.05291 0ZM6.33564 19.9994H6.43704C7.33641 19.964 8.10545 19.6596 8.74417 19.0862C9.76421 18.1708 10.204 16.7099 9.88177 15.3817C9.38789 13.3457 7.37972 12.0633 5.3355 12.7058C3.53877 13.2708 2.53262 15.1637 2.86462 16.9633C3.13654 18.4358 4.24296 19.649 5.749 19.9302C5.89522 19.9575 6.09077 19.9806 6.33564 19.9994Z" fill="white"/>
</svg>
